{"title":"Prometheus.2012.BDRip.DivX.AC3-Atilla82","uid":7664090,"size":1528404794,"categoryP":"video","categoryS":"movies","magnet":"?xt=urn:btih:2e4d3eb22a3a407265238e8297306f64b6d54bdc&amp;dn=Prometheus.2012.BDRip.DivX.AC3-Atilla82&amp;tr=udp%3A%2F%2Ftracker.openbittorrent.com%3A80&amp;tr=udp%3A%2F%2Fopen.demonii.com%3A1337&amp;tr=udp%3A%2F%2Ftracker.coppersurfer.tk%3A6969&amp;tr=udp%3A%2F%2Fexodus.desync.com%3A6969","seeders":0,"leechers":0,"uploader":"Atilla82","files":4,"time":1348390645,"description":"Prometheus.2012.BDRip.DivX.AC3-Atilla82\n\n\n\nPrometheus (2012)\n\nPrequel to Alien\n\n\n &lt;a href=&quot;\nhttp://www.imdb.com/title/tt1446714/&quot; rel=&quot;nofollow&quot; target=&quot;_NEW&quot;&gt;\nhttp://www.imdb.com/title/tt1446714/&lt;/a&gt;\n\n\nA team of explorers discover a clue to the origins of mankind on Earth, \nleading them on a journey to the darkest corners of the universe. \nThere, they must fight a terrifying battle to save the future of the human race.\n\n\n\n\nsubtitles: English, Spanish, Brazilian, Dutch, Croatian (.srt)\n\n\n\n\nGeneral\nComplete name : Prometheus.2012.BDRip.DivX.AC3-Atilla82.avi\nFormat : AVI\nFormat/Info : Audio Video Interleave\nFile size : 1.42 GiB\nDuration : 2h 3mn\nOverall bit rate : 1 646 Kbps\n\nVideo\nID : 0\nFormat : MPEG-4 Visual\nFormat settings, BVOP : 1\nFormat settings, QPel : No\nFormat settings, GMC : No warppoints\nFormat settings, Matrix : Default (H.263)\nCodec ID : DX50\nCodec ID/Hint : DivX 5\nDuration : 2h 3mn\nBit rate : 1 250 Kbps\nWidth : 720 pixels\nHeight : 300 pixels\nDisplay aspect ratio : 2.40:1\nFrame rate : 23.976 fps\nColor space : YUV\nChroma subsampling : 4:2:0\nBit depth : 8 bits\nScan type : Progressive\nCompression mode : Lossy\nBits/(Pixel*Frame) : 0.241\nStream size : 1.08 GiB (76%)\nWriting library : DivX 3330\n\nAudio\nID : 1\nFormat : AC-3\nFormat/Info : Audio Coding 3\nMode extension : CM (complete main)\nFormat settings, Endianness : Big\nCodec ID : 2000\nDuration : 2h 3mn\nSource duration : 2h 3mn\nBit rate mode : Constant\nBit rate : 384 Kbps\nChannel(s) : 6 channels\nChannel positions : Front: L C R, Side: L R, LFE\nSampling rate : 48.0 KHz\nBit depth : 16 bits\nCompression mode : Lossy\nStream size : 340 MiB (23%)\nAlignment : Aligned on interleaves\nInterleave, duration : 42 ms (1.00 video frame)\n\n\n\nSCREENSHOTS &lt;a href=&quot;\nhttp://www.pohrani.com/f/0/eW/2oiepCXr/screenshots.jpg&quot; rel=&quot;nofollow&quot; target=&quot;_NEW&quot;&gt;\nhttp://www.pohrani.com/f/0/eW/2oiepCXr/screenshots.jpg&lt;/a&gt;\n\n\n\n","torrent":{"xt":"urn:btih:2e4d3eb22a3a407265238e8297306f64b6d54bdc","amp;dn":"Prometheus.2012.BDRip.DivX.AC3-Atilla82","amp;tr":["udp%3A%2F%2Ftracker.openbittorrent.com%3A80","udp%3A%2F%2Fopen.demonii.com%3A1337","udp%3A%2F%2Ftracker.coppersurfer.tk%3A6969","udp%3A%2F%2Fexodus.desync.com%3A6969"],"infoHash":"2e4d3eb22a3a407265238e8297306f64b6d54bdc","infoHashBuffer":{"type":"Buffer","data":[46,77,62,178,42,58,64,114,101,35,142,130,151,48,111,100,182,213,75,220]},"announce":[],"urlList":[]}}